ply
format ascii 1.0
comment Created by Blender 3.3.1 - www.blender.org
element vertex 482
property float x
property float y
property float z
property float nx
property float ny
property float nz
element face 960
property list uchar uint vertex_indices
end_header
-0.000000 -0.021033 -0.050777 -0.000001 0.387887 0.921707
-0.002092 -0.010516 -0.053905 0.039207 0.197107 0.979598
-0.004103 -0.020628 -0.050777 0.075673 0.380434 0.921707
0.000000 -0.053905 0.010722 -0.000002 0.981015 -0.193930
-0.009906 -0.049801 0.021033 0.180412 0.906997 -0.380538
-0.000000 -0.050777 0.021033 -0.000001 0.924766 -0.380537
0.000000 -0.030534 -0.045698 -0.000001 0.559775 0.828645
-0.005957 -0.029948 -0.045698 0.109207 0.549019 0.828645
-0.008915 -0.044820 0.030534 0.162576 0.817327 -0.552761
0.000000 -0.045698 0.030534 -0.000001 0.833340 -0.552761
-0.000000 -0.038863 -0.038863 -0.000000 0.710142 0.704059
-0.007582 -0.038116 -0.038863 0.138541 0.696496 0.704059
-0.007582 -0.038116 0.038863 0.138541 0.696496 -0.704059
-0.000000 -0.038863 0.038863 -0.000001 0.710141 -0.704059
0.000000 -0.045698 -0.030534 -0.000001 0.833340 0.552761
-0.008915 -0.044820 -0.030534 0.162576 0.817327 0.552761
-0.005957 -0.029948 0.045698 0.109205 0.549019 -0.828645
-0.000000 -0.030534 0.045698 -0.000001 0.559775 -0.828645
-0.000000 -0.050777 -0.021033 -0.000001 0.924766 0.380537
-0.009906 -0.049801 -0.021033 0.180412 0.906997 0.380538
-0.004103 -0.020628 0.050777 0.075672 0.380434 -0.921707
-0.000000 -0.021033 0.050777 -0.000001 0.387888 -0.921707
0.000000 -0.053905 -0.010722 -0.000002 0.981015 0.193931
-0.010516 -0.052869 -0.010722 0.191387 0.962165 0.193930
-0.002092 -0.010516 0.053905 0.039207 0.197107 -0.979598
-0.000000 -0.010722 0.053905 -0.000001 0.200969 -0.979598
-0.010722 -0.053905 0.000000 0.195090 0.980785 0.000000
0.000000 -0.054961 0.000000 -0.000003 1.000000 -0.000000
-0.000000 -0.010722 -0.053905 -0.000001 0.200969 0.979598
0.000000 0.000000 -0.054961 0.000000 0.000000 1.000000
0.000000 0.000000 0.054961 0.000000 0.000000 -1.000000
-0.010516 -0.052869 0.010722 0.191387 0.962165 -0.193930
-0.021033 -0.050777 0.000000 0.382684 0.923880 0.000000
-0.004103 -0.009906 -0.053905 0.076907 0.185671 0.979598
-0.004103 -0.009906 0.053905 0.076907 0.185671 -0.979598
-0.020628 -0.049801 0.010722 0.375418 0.906340 -0.193930
-0.008049 -0.019432 -0.050777 0.148438 0.358361 0.921707
-0.019432 -0.046912 0.021033 0.353892 0.854372 -0.380537
-0.011685 -0.028210 -0.045698 0.214217 0.517165 0.828645
-0.017488 -0.042220 0.030534 0.318906 0.769905 -0.552761
-0.014872 -0.035905 -0.038863 0.271759 0.656085 0.704059
-0.014872 -0.035905 0.038863 0.271759 0.656085 -0.704059
-0.017488 -0.042220 -0.030534 0.318905 0.769905 0.552761
-0.011685 -0.028210 0.045698 0.214217 0.517165 -0.828645
-0.019432 -0.046912 -0.021033 0.353893 0.854372 0.380537
-0.008049 -0.019432 0.050777 0.148438 0.358361 -0.921707
-0.020628 -0.049801 -0.010722 0.375418 0.906340 0.193930
-0.025388 -0.037997 0.030534 0.462979 0.692897 -0.552761
-0.021591 -0.032313 0.038863 0.394533 0.590461 -0.704059
-0.025388 -0.037997 -0.030534 0.462979 0.692897 0.552761
-0.016964 -0.025388 0.045698 0.310994 0.465436 -0.828645
-0.028210 -0.042220 -0.021033 0.513772 0.768915 0.380537
-0.011685 -0.017488 0.050777 0.215499 0.322516 -0.921707
-0.029948 -0.044820 -0.010722 0.545023 0.815684 0.193930
-0.005957 -0.008915 0.053905 0.111652 0.167099 -0.979598
-0.030534 -0.045698 0.000000 0.555570 0.831470 -0.000000
-0.005957 -0.008915 -0.053905 0.111652 0.167099 0.979598
-0.029948 -0.044820 0.010722 0.545023 0.815684 -0.193930
-0.011685 -0.017488 -0.050777 0.215499 0.322516 0.921707
-0.028210 -0.042220 0.021033 0.513772 0.768915 -0.380537
-0.016964 -0.025388 -0.045698 0.310994 0.465436 0.828645
-0.021591 -0.032313 -0.038863 0.394533 0.590461 0.704059
-0.007582 -0.007582 0.053905 0.142106 0.142106 -0.979598
-0.038116 -0.038116 0.010722 0.693683 0.693682 -0.193930
-0.014872 -0.014872 -0.050777 0.274278 0.274278 0.921707
-0.035905 -0.035905 0.021033 0.653908 0.653908 -0.380537
-0.021591 -0.021591 -0.045698 0.395821 0.395821 0.828645
-0.032313 -0.032313 0.030534 0.589260 0.589260 -0.552761
-0.027480 -0.027480 -0.038863 0.502146 0.502146 0.704059
-0.027480 -0.027480 0.038863 0.502146 0.502146 -0.704059
-0.032313 -0.032313 -0.030534 0.589260 0.589260 0.552761
-0.021591 -0.021591 0.045698 0.395821 0.395821 -0.828645
-0.035905 -0.035905 -0.021033 0.653908 0.653908 0.380537
-0.014872 -0.014872 0.050777 0.274278 0.274278 -0.921707
-0.038116 -0.038116 -0.010722 0.693683 0.693682 0.193930
-0.038863 -0.038863 0.000000 0.707107 0.707107 -0.000000
-0.007582 -0.007582 -0.053905 0.142106 0.142106 0.979598
-0.025388 -0.016964 0.045698 0.465436 0.310994 -0.828645
-0.042220 -0.028210 -0.021033 0.768914 0.513772 0.380537
-0.017488 -0.011685 0.050777 0.322516 0.215499 -0.921707
-0.044820 -0.029948 -0.010722 0.815685 0.545023 0.193930
-0.008915 -0.005957 0.053905 0.167100 0.111652 -0.979598
-0.045698 -0.030534 0.000000 0.831470 0.555570 0.000000
-0.008915 -0.005957 -0.053905 0.167100 0.111652 0.979598
-0.044820 -0.029948 0.010722 0.815685 0.545023 -0.193930
-0.017488 -0.011685 -0.050777 0.322516 0.215499 0.921707
-0.042220 -0.028210 0.021033 0.768914 0.513772 -0.380537
-0.025388 -0.016964 -0.045698 0.465436 0.310994 0.828645
-0.037997 -0.025388 0.030534 0.692897 0.462979 -0.552761
-0.032313 -0.021591 -0.038863 0.590461 0.394533 0.704059
-0.032313 -0.021591 0.038863 0.590461 0.394533 -0.704059
-0.037997 -0.025388 -0.030534 0.692897 0.462979 0.552761
-0.019432 -0.008049 -0.050777 0.358361 0.148438 0.921707
-0.046912 -0.019432 0.021033 0.854372 0.353892 -0.380537
-0.028210 -0.011685 -0.045698 0.517165 0.214217 0.828645
-0.042220 -0.017488 0.030534 0.769906 0.318905 -0.552761
-0.035905 -0.014872 -0.038863 0.656085 0.271759 0.704059
-0.035905 -0.014872 0.038863 0.656085 0.271759 -0.704059
-0.042220 -0.017488 -0.030534 0.769906 0.318905 0.552761
-0.028210 -0.011685 0.045698 0.517165 0.214217 -0.828645
-0.046912 -0.019432 -0.021033 0.854372 0.353892 0.380537
-0.019432 -0.008049 0.050777 0.358361 0.148438 -0.921707
-0.049801 -0.020628 -0.010722 0.906340 0.375418 0.193930
-0.009906 -0.004103 0.053905 0.185671 0.076907 -0.979598
-0.050777 -0.021033 0.000000 0.923880 0.382683 -0.000000
-0.009906 -0.004103 -0.053905 0.185671 0.076907 0.979598
-0.049801 -0.020628 0.010722 0.906340 0.375418 -0.193930
-0.049801 -0.009906 -0.021033 0.906996 0.180413 0.380537
-0.029948 -0.005957 0.045698 0.549019 0.109207 -0.828645
-0.020628 -0.004103 0.050777 0.380434 0.075673 -0.921707
-0.052869 -0.010516 -0.010722 0.962165 0.191387 0.193930
-0.010516 -0.002092 0.053905 0.197107 0.039207 -0.979598
-0.053905 -0.010722 0.000000 0.980785 0.195090 0.000000
-0.010516 -0.002092 -0.053905 0.197107 0.039207 0.979598
-0.052869 -0.010516 0.010722 0.962165 0.191387 -0.193930
-0.020628 -0.004103 -0.050777 0.380434 0.075673 0.921707
-0.049801 -0.009906 0.021033 0.906996 0.180413 -0.380537
-0.029948 -0.005957 -0.045698 0.549019 0.109207 0.828645
-0.044820 -0.008915 0.030534 0.817327 0.162576 -0.552761
-0.038116 -0.007582 -0.038863 0.696496 0.138542 0.704059
-0.038116 -0.007582 0.038863 0.696496 0.138542 -0.704059
-0.044820 -0.008915 -0.030534 0.817327 0.162576 0.552761
-0.050777 -0.000000 0.021033 0.924766 -0.000000 -0.380537
-0.030534 0.000000 -0.045698 0.559775 -0.000000 0.828645
-0.045698 0.000000 0.030534 0.833340 -0.000000 -0.552761
-0.038863 -0.000000 -0.038863 0.710141 0.000000 0.704059
-0.038863 -0.000000 0.038863 0.710142 0.000000 -0.704059
-0.045698 0.000000 -0.030534 0.833340 -0.000000 0.552761
-0.030534 0.000000 0.045698 0.559775 -0.000000 -0.828645
-0.050777 -0.000000 -0.021033 0.924766 -0.000000 0.380537
-0.021033 0.000000 0.050777 0.387887 -0.000000 -0.921707
-0.053905 0.000000 -0.010722 0.981015 -0.000000 0.193930
-0.010722 0.000000 0.053905 0.200969 -0.000000 -0.979598
-0.054961 0.000000 0.000000 1.000000 -0.000000 0.000000
-0.010722 0.000000 -0.053905 0.200969 -0.000000 0.979598
-0.053905 0.000000 0.010722 0.981015 -0.000000 -0.193930
-0.021033 0.000000 -0.050777 0.387887 0.000000 0.921707
-0.020628 0.004103 0.050777 0.380434 -0.075673 -0.921707
-0.049801 0.009906 -0.021033 0.906996 -0.180413 0.380537
-0.052869 0.010516 -0.010722 0.962165 -0.191387 0.193929
-0.010516 0.002092 0.053905 0.197107 -0.039207 -0.979598
-0.053905 0.010722 0.000000 0.980785 -0.195091 -0.000000
-0.010516 0.002092 -0.053905 0.197107 -0.039207 0.979598
-0.052869 0.010516 0.010722 0.962165 -0.191387 -0.193929
-0.020628 0.004103 -0.050777 0.380434 -0.075673 0.921707
-0.049801 0.009906 0.021033 0.906996 -0.180413 -0.380537
-0.029948 0.005957 -0.045698 0.549019 -0.109207 0.828645
-0.044820 0.008915 0.030534 0.817327 -0.162577 -0.552761
-0.038116 0.007582 -0.038863 0.696496 -0.138542 0.704059
-0.038116 0.007582 0.038863 0.696496 -0.138542 -0.704059
-0.044820 0.008915 -0.030534 0.817327 -0.162577 0.552761
-0.029948 0.005957 0.045698 0.549019 -0.109207 -0.828645
-0.019432 0.008049 -0.050777 0.358361 -0.148438 0.921707
-0.028210 0.011685 -0.045698 0.517165 -0.214217 0.828645
-0.046912 0.019432 0.021033 0.854372 -0.353893 -0.380537
-0.042220 0.017488 0.030534 0.769905 -0.318906 -0.552761
-0.035905 0.014872 -0.038863 0.656085 -0.271759 0.704059
-0.035905 0.014872 0.038863 0.656085 -0.271759 -0.704059
-0.042220 0.017488 -0.030534 0.769905 -0.318906 0.552761
-0.028210 0.011685 0.045698 0.517165 -0.214217 -0.828645
-0.046912 0.019432 -0.021033 0.854372 -0.353893 0.380537
-0.019432 0.008049 0.050777 0.358361 -0.148438 -0.921707
-0.049801 0.020628 -0.010722 0.906340 -0.375419 0.193929
-0.009906 0.004103 0.053905 0.185671 -0.076908 -0.979598
-0.050777 0.021033 0.000000 0.923879 -0.382684 0.000000
-0.009906 0.004103 -0.053905 0.185671 -0.076908 0.979598
-0.049801 0.020628 0.010722 0.906340 -0.375419 -0.193929
-0.042220 0.028210 -0.021033 0.768915 -0.513772 0.380537
-0.044820 0.029948 -0.010722 0.815685 -0.545023 0.193929
-0.008915 0.005957 0.053905 0.167099 -0.111652 -0.979598
-0.045698 0.030534 0.000000 0.831469 -0.555570 -0.000000
-0.008915 0.005957 -0.053905 0.167099 -0.111652 0.979598
-0.044820 0.029948 0.010722 0.815685 -0.545023 -0.193929
-0.017488 0.011685 -0.050777 0.322516 -0.215499 0.921707
-0.042220 0.028210 0.021033 0.768915 -0.513772 -0.380537
-0.025388 0.016964 -0.045698 0.465436 -0.310995 0.828645
-0.037997 0.025388 0.030534 0.692896 -0.462979 -0.552761
-0.032313 0.021591 -0.038863 0.590461 -0.394534 0.704059
-0.032313 0.021591 0.038863 0.590461 -0.394533 -0.704059
-0.037997 0.025388 -0.030534 0.692897 -0.462979 0.552761
-0.025388 0.016964 0.045698 0.465436 -0.310995 -0.828645
-0.017488 0.011685 0.050777 0.322516 -0.215499 -0.921707
-0.035905 0.035905 0.021033 0.653908 -0.653908 -0.380537
-0.032313 0.032313 0.030534 0.589260 -0.589260 -0.552761
-0.027480 0.027480 -0.038863 0.502146 -0.502146 0.704059
-0.027480 0.027480 0.038863 0.502146 -0.502146 -0.704059
-0.032313 0.032313 -0.030534 0.589260 -0.589260 0.552761
-0.021591 0.021591 0.045698 0.395821 -0.395821 -0.828645
-0.035905 0.035905 -0.021033 0.653908 -0.653908 0.380537
-0.014872 0.014872 0.050777 0.274278 -0.274278 -0.921707
-0.038116 0.038116 -0.010722 0.693682 -0.693683 0.193929
-0.007582 0.007582 0.053905 0.142106 -0.142106 -0.979598
-0.038863 0.038863 0.000000 0.707106 -0.707107 -0.000000
-0.007582 0.007582 -0.053905 0.142106 -0.142106 0.979598
-0.038116 0.038116 0.010722 0.693682 -0.693683 -0.193929
-0.014872 0.014872 -0.050777 0.274278 -0.274278 0.921707
-0.021591 0.021591 -0.045698 0.395821 -0.395821 0.828645
-0.005957 0.008915 0.053905 0.111652 -0.167100 -0.979598
-0.029948 0.044820 -0.010722 0.545023 -0.815685 0.193929
-0.030534 0.045698 0.000000 0.555570 -0.831470 0.000000
-0.005957 0.008915 -0.053905 0.111652 -0.167100 0.979598
-0.029948 0.044820 0.010722 0.545023 -0.815685 -0.193929
-0.011685 0.017488 -0.050777 0.215498 -0.322516 0.921707
-0.028210 0.042220 0.021033 0.513772 -0.768915 -0.380537
-0.016964 0.025388 -0.045698 0.310994 -0.465436 0.828645
-0.025388 0.037997 0.030534 0.462979 -0.692897 -0.552761
-0.021591 0.032313 -0.038863 0.394534 -0.590461 0.704059
-0.021591 0.032313 0.038863 0.394533 -0.590461 -0.704059
-0.025388 0.037997 -0.030534 0.462979 -0.692897 0.552761
-0.016964 0.025388 0.045698 0.310994 -0.465436 -0.828645
-0.028210 0.042220 -0.021033 0.513772 -0.768915 0.380537
-0.011685 0.017488 0.050777 0.215499 -0.322517 -0.921707
-0.014872 0.035905 0.038863 0.271759 -0.656085 -0.704059
-0.014872 0.035905 -0.038863 0.271759 -0.656085 0.704059
-0.017488 0.042220 -0.030534 0.318905 -0.769906 0.552761
-0.011685 0.028210 0.045698 0.214216 -0.517165 -0.828645
-0.019432 0.046912 -0.021033 0.353892 -0.854372 0.380537
-0.008049 0.019432 0.050777 0.148438 -0.358361 -0.921707
-0.020628 0.049801 -0.010722 0.375418 -0.906340 0.193929
-0.004103 0.009906 0.053905 0.076907 -0.185671 -0.979598
-0.021032 0.050777 0.000000 0.382683 -0.923880 -0.000000
-0.004103 0.009906 -0.053905 0.076907 -0.185671 0.979598
-0.020628 0.049801 0.010722 0.375418 -0.906340 -0.193929
-0.008049 0.019432 -0.050777 0.148438 -0.358361 0.921707
-0.019432 0.046912 0.021033 0.353892 -0.854372 -0.380537
-0.011685 0.028210 -0.045698 0.214216 -0.517165 0.828645
-0.017488 0.042220 0.030534 0.318905 -0.769906 -0.552761
-0.002092 0.010516 -0.053905 0.039207 -0.197107 0.979598
-0.002092 0.010516 0.053905 0.039207 -0.197107 -0.979598
-0.010516 0.052869 0.010722 0.191386 -0.962166 -0.193929
-0.004103 0.020628 -0.050777 0.075673 -0.380434 0.921707
-0.009906 0.049801 0.021033 0.180413 -0.906997 -0.380537
-0.005957 0.029948 -0.045698 0.109206 -0.549019 0.828645
-0.008915 0.044820 0.030534 0.162576 -0.817327 -0.552761
-0.007582 0.038116 -0.038863 0.138542 -0.696496 0.704059
-0.007582 0.038116 0.038863 0.138542 -0.696496 -0.704059
-0.008915 0.044820 -0.030534 0.162576 -0.817327 0.552761
-0.005957 0.029948 0.045698 0.109206 -0.549019 -0.828645
-0.009906 0.049801 -0.021033 0.180413 -0.906997 0.380537
-0.004103 0.020628 0.050777 0.075673 -0.380434 -0.921707
-0.010516 0.052869 -0.010722 0.191387 -0.962166 0.193929
-0.010722 0.053905 0.000000 0.195090 -0.980785 0.000000
0.000000 0.038863 -0.038863 -0.000000 -0.710141 0.704059
0.000000 0.045698 -0.030534 -0.000000 -0.833340 0.552761
0.000000 0.038863 0.038863 -0.000000 -0.710141 -0.704059
0.000000 0.030534 0.045698 -0.000000 -0.559775 -0.828645
-0.000000 0.050777 -0.021033 0.000000 -0.924766 0.380537
0.000000 0.021033 0.050777 -0.000000 -0.387887 -0.921707
0.000000 0.053905 -0.010722 -0.000000 -0.981016 0.193929
0.000000 0.010722 0.053905 -0.000000 -0.200969 -0.979598
0.000000 0.054961 0.000000 -0.000001 -1.000000 0.000000
0.000000 0.010722 -0.053905 -0.000000 -0.200969 0.979598
0.000000 0.053905 0.010722 -0.000000 -0.981016 -0.193929
0.000000 0.021033 -0.050777 -0.000000 -0.387887 0.921707
-0.000000 0.050777 0.021033 0.000000 -0.924766 -0.380537
0.000000 0.030534 -0.045698 -0.000000 -0.559775 0.828645
0.000000 0.045698 0.030534 -0.000000 -0.833340 -0.552761
0.010516 0.052869 0.010722 -0.191387 -0.962166 -0.193929
0.004103 0.020628 -0.050777 -0.075673 -0.380434 0.921707
0.009906 0.049801 0.021033 -0.180413 -0.906996 -0.380537
0.005957 0.029948 -0.045698 -0.109207 -0.549019 0.828645
0.008915 0.044820 0.030534 -0.162577 -0.817327 -0.552761
0.007582 0.038116 -0.038863 -0.138542 -0.696496 0.704059
0.007582 0.038116 0.038863 -0.138542 -0.696496 -0.704059
0.008915 0.044820 -0.030534 -0.162577 -0.817327 0.552761
0.005957 0.029948 0.045698 -0.109207 -0.549019 -0.828645
0.009906 0.049801 -0.021033 -0.180413 -0.906996 0.380537
0.004103 0.020628 0.050777 -0.075673 -0.380434 -0.921707
0.010516 0.052869 -0.010722 -0.191387 -0.962166 0.193929
0.002092 0.010516 0.053905 -0.039207 -0.197107 -0.979598
0.010722 0.053905 0.000000 -0.195091 -0.980785 0.000000
0.002092 0.010516 -0.053905 -0.039207 -0.197107 0.979598
0.014872 0.035905 0.038863 -0.271759 -0.656085 -0.704059
0.011685 0.028210 0.045698 -0.214217 -0.517165 -0.828645
0.019432 0.046912 -0.021033 -0.353893 -0.854372 0.380537
0.008049 0.019432 0.050777 -0.148438 -0.358361 -0.921707
0.020628 0.049801 -0.010722 -0.375419 -0.906340 0.193929
0.004103 0.009906 0.053905 -0.076907 -0.185671 -0.979598
0.021033 0.050777 0.000000 -0.382684 -0.923879 0.000000
0.004103 0.009906 -0.053905 -0.076907 -0.185671 0.979598
0.020628 0.049801 0.010722 -0.375419 -0.906340 -0.193929
0.008049 0.019432 -0.050777 -0.148438 -0.358361 0.921707
0.019432 0.046912 0.021033 -0.353893 -0.854372 -0.380537
0.011685 0.028210 -0.045698 -0.214217 -0.517165 0.828645
0.017488 0.042220 0.030534 -0.318906 -0.769906 -0.552761
0.014872 0.035905 -0.038863 -0.271759 -0.656085 0.704059
0.017488 0.042220 -0.030534 -0.318906 -0.769906 0.552761
0.005957 0.008915 -0.053905 -0.111652 -0.167099 0.979598
0.011685 0.017488 -0.050777 -0.215499 -0.322516 0.921707
0.028210 0.042220 0.021033 -0.513772 -0.768915 -0.380537
0.016964 0.025388 -0.045698 -0.310995 -0.465436 0.828645
0.025388 0.037997 0.030534 -0.462979 -0.692896 -0.552761
0.021591 0.032313 -0.038863 -0.394534 -0.590461 0.704059
0.021591 0.032313 0.038863 -0.394533 -0.590461 -0.704059
0.025388 0.037997 -0.030534 -0.462979 -0.692896 0.552761
0.016964 0.025388 0.045698 -0.310995 -0.465436 -0.828645
0.028210 0.042220 -0.021033 -0.513772 -0.768915 0.380537
0.011685 0.017488 0.050777 -0.215499 -0.322516 -0.921707
0.029948 0.044820 -0.010722 -0.545023 -0.815685 0.193929
0.005957 0.008915 0.053905 -0.111652 -0.167100 -0.979598
0.030534 0.045698 0.000000 -0.555571 -0.831469 -0.000000
0.029948 0.044820 0.010722 -0.545023 -0.815684 -0.193929
0.035905 0.035905 -0.021033 -0.653908 -0.653908 0.380537
0.014872 0.014872 0.050777 -0.274278 -0.274278 -0.921707
0.038116 0.038116 -0.010722 -0.693683 -0.693683 0.193929
0.007582 0.007582 0.053905 -0.142106 -0.142106 -0.979598
0.038863 0.038863 0.000000 -0.707107 -0.707106 -0.000000
0.007582 0.007582 -0.053905 -0.142106 -0.142106 0.979598
0.038116 0.038116 0.010722 -0.693683 -0.693683 -0.193929
0.014872 0.014872 -0.050777 -0.274278 -0.274278 0.921707
0.035905 0.035905 0.021033 -0.653908 -0.653908 -0.380537
0.021591 0.021591 -0.045698 -0.395821 -0.395821 0.828645
0.032313 0.032313 0.030534 -0.589260 -0.589260 -0.552761
0.027480 0.027480 -0.038863 -0.502146 -0.502146 0.704059
0.027480 0.027480 0.038863 -0.502146 -0.502146 -0.704059
0.032313 0.032313 -0.030534 -0.589260 -0.589260 0.552761
0.021591 0.021591 0.045698 -0.395821 -0.395821 -0.828645
0.042220 0.028210 0.021033 -0.768915 -0.513772 -0.380537
0.025388 0.016964 -0.045698 -0.465436 -0.310994 0.828645
0.037997 0.025388 0.030534 -0.692897 -0.462979 -0.552761
0.032313 0.021591 -0.038863 -0.590461 -0.394533 0.704059
0.032313 0.021591 0.038863 -0.590461 -0.394533 -0.704059
0.037997 0.025388 -0.030534 -0.692897 -0.462979 0.552761
0.025388 0.016964 0.045698 -0.465436 -0.310994 -0.828645
0.042220 0.028210 -0.021033 -0.768915 -0.513772 0.380537
0.017488 0.011685 0.050777 -0.322517 -0.215499 -0.921707
0.044820 0.029948 -0.010722 -0.815685 -0.545023 0.193929
0.008915 0.005957 0.053905 -0.167100 -0.111652 -0.979598
0.045698 0.030534 0.000000 -0.831470 -0.555570 0.000000
0.008915 0.005957 -0.053905 -0.167100 -0.111652 0.979598
0.044820 0.029948 0.010722 -0.815685 -0.545023 -0.193929
0.017488 0.011685 -0.050777 -0.322517 -0.215499 0.921707
0.019432 0.008049 0.050777 -0.358361 -0.148438 -0.921707
0.046912 0.019432 -0.021033 -0.854372 -0.353892 0.380537
0.049801 0.020628 -0.010722 -0.906340 -0.375418 0.193929
0.009906 0.004103 0.053905 -0.185671 -0.076907 -0.979598
0.050777 0.021032 0.000000 -0.923880 -0.382683 0.000000
0.009906 0.004103 -0.053905 -0.185671 -0.076907 0.979598
0.049801 0.020628 0.010722 -0.906340 -0.375418 -0.193929
0.019432 0.008049 -0.050777 -0.358361 -0.148438 0.921707
0.046912 0.019432 0.021033 -0.854372 -0.353892 -0.380537
0.028210 0.011685 -0.045698 -0.517165 -0.214216 0.828645
0.042220 0.017488 0.030534 -0.769906 -0.318905 -0.552761
0.035905 0.014872 -0.038863 -0.656085 -0.271759 0.704059
0.035905 0.014872 0.038863 -0.656085 -0.271759 -0.704059
0.042220 0.017488 -0.030534 -0.769906 -0.318905 0.552761
0.028210 0.011685 0.045698 -0.517165 -0.214216 -0.828645
0.049801 0.009906 0.021033 -0.906996 -0.180413 -0.380537
0.044820 0.008915 0.030534 -0.817327 -0.162576 -0.552761
0.038116 0.007582 -0.038863 -0.696496 -0.138542 0.704059
0.038116 0.007582 0.038863 -0.696496 -0.138542 -0.704059
0.044820 0.008915 -0.030534 -0.817327 -0.162576 0.552761
0.029948 0.005957 0.045698 -0.549019 -0.109206 -0.828645
0.049801 0.009906 -0.021033 -0.906997 -0.180413 0.380537
0.020628 0.004103 0.050777 -0.380434 -0.075673 -0.921707
0.052869 0.010516 -0.010722 -0.962166 -0.191386 0.193928
0.010516 0.002092 0.053905 -0.197107 -0.039207 -0.979598
0.053905 0.010722 0.000000 -0.980785 -0.195090 0.000000
0.010516 0.002092 -0.053905 -0.197107 -0.039207 0.979598
0.052869 0.010516 0.010722 -0.962166 -0.191386 -0.193928
0.020628 0.004103 -0.050777 -0.380434 -0.075673 0.921707
0.029948 0.005957 -0.045698 -0.549019 -0.109206 0.828645
0.010722 -0.000000 0.053905 -0.200969 0.000000 -0.979598
0.053905 -0.000000 -0.010722 -0.981016 0.000000 0.193929
0.054961 -0.000000 0.000000 -1.000000 0.000000 0.000000
0.010722 -0.000000 -0.053905 -0.200969 0.000000 0.979598
0.053905 -0.000000 0.010722 -0.981016 0.000000 -0.193929
0.021033 -0.000000 -0.050777 -0.387887 0.000000 0.921707
0.050777 -0.000000 0.021033 -0.924766 0.000000 -0.380537
0.030534 -0.000000 -0.045698 -0.559775 0.000000 0.828645
0.045698 -0.000000 0.030534 -0.833340 0.000000 -0.552761
0.038863 -0.000000 -0.038863 -0.710141 0.000000 0.704059
0.038863 -0.000000 0.038863 -0.710141 0.000000 -0.704059
0.045698 -0.000000 -0.030534 -0.833340 0.000000 0.552761
0.030534 -0.000000 0.045698 -0.559775 0.000000 -0.828645
0.050777 -0.000000 -0.021033 -0.924766 0.000000 0.380537
0.021033 -0.000000 0.050777 -0.387887 0.000000 -0.921707
0.038116 -0.007582 -0.038863 -0.696496 0.138542 0.704059
0.038116 -0.007582 0.038863 -0.696496 0.138542 -0.704059
0.044820 -0.008915 -0.030534 -0.817327 0.162577 0.552761
0.029948 -0.005957 0.045698 -0.549019 0.109207 -0.828645
0.049801 -0.009906 -0.021033 -0.906996 0.180413 0.380537
0.020628 -0.004103 0.050777 -0.380434 0.075673 -0.921707
0.052869 -0.010516 -0.010722 -0.962166 0.191387 0.193929
0.010516 -0.002092 0.053905 -0.197107 0.039207 -0.979598
0.053905 -0.010722 0.000000 -0.980785 0.195091 -0.000000
0.010516 -0.002092 -0.053905 -0.197107 0.039207 0.979598
0.052869 -0.010516 0.010722 -0.962166 0.191387 -0.193929
0.020628 -0.004103 -0.050777 -0.380434 0.075673 0.921707
0.049801 -0.009906 0.021033 -0.906996 0.180413 -0.380537
0.029948 -0.005957 -0.045698 -0.549019 0.109207 0.828645
0.044820 -0.008915 0.030534 -0.817327 0.162577 -0.552761
0.049801 -0.020628 -0.010722 -0.906340 0.375419 0.193929
0.050777 -0.021033 0.000000 -0.923879 0.382684 -0.000000
0.009906 -0.004103 -0.053905 -0.185671 0.076907 0.979598
0.009906 -0.004103 0.053905 -0.185671 0.076907 -0.979598
0.049801 -0.020628 0.010722 -0.906340 0.375419 -0.193929
0.019431 -0.008049 -0.050777 -0.358361 0.148438 0.921707
0.046912 -0.019432 0.021033 -0.854372 0.353892 -0.380537
0.028210 -0.011685 -0.045698 -0.517164 0.214217 0.828645
0.042219 -0.017488 0.030534 -0.769906 0.318906 -0.552761
0.035905 -0.014872 -0.038863 -0.656085 0.271759 0.704059
0.035905 -0.014872 0.038863 -0.656085 0.271759 -0.704059
0.042219 -0.017488 -0.030534 -0.769906 0.318906 0.552761
0.028210 -0.011685 0.045698 -0.517164 0.214217 -0.828645
0.046912 -0.019432 -0.021033 -0.854372 0.353892 0.380537
0.019431 -0.008049 0.050777 -0.358361 0.148438 -0.921707
0.032313 -0.021591 0.038863 -0.590461 0.394534 -0.704059
0.032313 -0.021591 -0.038863 -0.590461 0.394533 0.704059
0.037997 -0.025388 -0.030534 -0.692896 0.462979 0.552761
0.025388 -0.016964 0.045698 -0.465436 0.310995 -0.828645
0.042220 -0.028210 -0.021033 -0.768914 0.513772 0.380537
0.017488 -0.011685 0.050777 -0.322517 0.215499 -0.921707
0.044820 -0.029948 -0.010722 -0.815684 0.545023 0.193928
0.008915 -0.005957 0.053905 -0.167099 0.111652 -0.979598
0.045698 -0.030534 0.000000 -0.831469 0.555571 -0.000000
0.008915 -0.005957 -0.053905 -0.167099 0.111652 0.979598
0.044820 -0.029948 0.010722 -0.815685 0.545023 -0.193929
0.017488 -0.011685 -0.050777 -0.322517 0.215499 0.921707
0.042220 -0.028210 0.021033 -0.768914 0.513772 -0.380537
0.025388 -0.016964 -0.045698 -0.465436 0.310994 0.828645
0.037997 -0.025388 0.030534 -0.692896 0.462979 -0.552761
0.007582 -0.007582 -0.053905 -0.142106 0.142107 0.979598
0.007582 -0.007582 0.053905 -0.142106 0.142107 -0.979598
0.038116 -0.038116 0.010722 -0.693683 0.693683 -0.193929
0.014872 -0.014872 -0.050777 -0.274278 0.274278 0.921707
0.035905 -0.035905 0.021033 -0.653908 0.653908 -0.380537
0.021591 -0.021591 -0.045698 -0.395820 0.395821 0.828645
0.032313 -0.032313 0.030534 -0.589260 0.589261 -0.552761
0.027480 -0.027480 -0.038863 -0.502146 0.502146 0.704059
0.027480 -0.027480 0.038863 -0.502146 0.502146 -0.704059
0.032313 -0.032313 -0.030534 -0.589260 0.589260 0.552761
0.021591 -0.021591 0.045698 -0.395820 0.395821 -0.828645
0.035905 -0.035905 -0.021033 -0.653908 0.653908 0.380537
0.014872 -0.014872 0.050777 -0.274278 0.274278 -0.921707
0.038116 -0.038116 -0.010722 -0.693682 0.693683 0.193929
0.038863 -0.038863 0.000000 -0.707106 0.707107 -0.000000
0.021591 -0.032313 -0.038863 -0.394534 0.590461 0.704059
0.025388 -0.037997 -0.030534 -0.462979 0.692897 0.552761
0.021591 -0.032313 0.038863 -0.394534 0.590461 -0.704059
0.016964 -0.025388 0.045698 -0.310994 0.465436 -0.828645
0.028210 -0.042220 -0.021033 -0.513772 0.768914 0.380537
0.011685 -0.017488 0.050777 -0.215499 0.322517 -0.921707
0.029948 -0.044820 -0.010722 -0.545023 0.815685 0.193928
0.005957 -0.008915 0.053905 -0.111652 0.167100 -0.979598
0.030534 -0.045698 0.000000 -0.555570 0.831470 0.000000
0.005957 -0.008915 -0.053905 -0.111652 0.167100 0.979598
0.029948 -0.044820 0.010722 -0.545023 0.815685 -0.193928
0.011685 -0.017488 -0.050777 -0.215499 0.322517 0.921707
0.028210 -0.042220 0.021033 -0.513772 0.768914 -0.380537
0.016964 -0.025388 -0.045698 -0.310994 0.465436 0.828645
0.025388 -0.037997 0.030534 -0.462979 0.692897 -0.552761
0.020628 -0.049801 0.010722 -0.375418 0.906340 -0.193928
0.004103 -0.009906 -0.053905 -0.076907 0.185671 0.979598
0.008049 -0.019432 -0.050777 -0.148438 0.358361 0.921707
0.019431 -0.046912 0.021033 -0.353892 0.854372 -0.380537
0.011685 -0.028210 -0.045698 -0.214216 0.517165 0.828645
0.017488 -0.042219 0.030534 -0.318905 0.769906 -0.552761
0.014872 -0.035905 -0.038863 -0.271759 0.656085 0.704059
0.014872 -0.035905 0.038863 -0.271759 0.656085 -0.704059
0.017488 -0.042219 -0.030534 -0.318905 0.769906 0.552761
0.011685 -0.028210 0.045698 -0.214216 0.517165 -0.828645
0.019431 -0.046912 -0.021033 -0.353892 0.854372 0.380537
0.008049 -0.019432 0.050777 -0.148438 0.358361 -0.921707
0.020628 -0.049801 -0.010722 -0.375418 0.906340 0.193928
0.004103 -0.009906 0.053905 -0.076907 0.185671 -0.979598
0.021032 -0.050777 0.000000 -0.382683 0.923880 -0.000000
0.007582 -0.038116 0.038863 -0.138541 0.696496 -0.704059
0.005957 -0.029948 0.045698 -0.109206 0.549019 -0.828645
0.009906 -0.049801 -0.021033 -0.180413 0.906997 0.380537
0.004103 -0.020628 0.050777 -0.075673 0.380434 -0.921707
0.010516 -0.052869 -0.010722 -0.191388 0.962165 0.193929
0.002092 -0.010516 0.053905 -0.039207 0.197107 -0.979598
0.010722 -0.053904 0.000000 -0.195092 0.980785 0.000000
0.002092 -0.010516 -0.053905 -0.039207 0.197107 0.979598
0.010516 -0.052869 0.010722 -0.191388 0.962165 -0.193929
0.004103 -0.020628 -0.050777 -0.075673 0.380434 0.921707
0.009906 -0.049801 0.021033 -0.180413 0.906997 -0.380537
0.005957 -0.029948 -0.045698 -0.109208 0.549018 0.828645
0.008915 -0.044820 0.030534 -0.162577 0.817327 -0.552761
0.007582 -0.038116 -0.038863 -0.138542 0.696497 0.704059
0.008915 -0.044820 -0.030534 -0.162577 0.817327 0.552761
3 0 1 2
3 3 4 5
3 6 2 7
3 5 8 9
3 10 7 11
3 9 12 13
3 14 11 15
3 13 16 17
3 18 15 19
3 17 20 21
3 22 19 23
3 21 24 25
3 22 26 27
3 28 29 1
3 30 25 24
3 27 31 3
3 23 32 26
3 1 29 33
3 30 24 34
3 26 35 31
3 1 36 2
3 31 37 4
3 2 38 7
3 4 39 8
3 7 40 11
3 8 41 12
3 11 42 15
3 16 41 43
3 15 44 19
3 20 43 45
3 23 44 46
3 20 34 24
3 41 47 48
3 40 49 42
3 43 48 50
3 42 51 44
3 43 52 45
3 44 53 46
3 45 54 34
3 46 55 32
3 33 29 56
3 30 34 54
3 35 55 57
3 33 58 36
3 35 59 37
3 36 60 38
3 39 59 47
3 38 61 40
3 30 54 62
3 55 63 57
3 56 64 58
3 57 65 59
3 58 66 60
3 47 65 67
3 60 68 61
3 47 69 48
3 61 70 49
3 48 71 50
3 49 72 51
3 50 73 52
3 53 72 74
3 52 62 54
3 55 74 75
3 56 29 76
3 69 77 71
3 70 78 72
3 73 77 79
3 74 78 80
3 73 81 62
3 75 80 82
3 76 29 83
3 30 62 81
3 75 84 63
3 76 85 64
3 63 86 65
3 64 87 66
3 67 86 88
3 66 89 68
3 67 90 69
3 70 89 91
3 83 92 85
3 84 93 86
3 85 94 87
3 88 93 95
3 87 96 89
3 88 97 90
3 91 96 98
3 90 99 77
3 91 100 78
3 77 101 79
3 80 100 102
3 81 101 103
3 82 102 104
3 83 29 105
3 30 81 103
3 82 106 84
3 98 107 100
3 101 108 109
3 102 107 110
3 101 111 103
3 104 110 112
3 105 29 113
3 30 103 111
3 104 114 106
3 92 113 115
3 106 116 93
3 92 117 94
3 95 116 118
3 94 119 96
3 95 120 97
3 98 119 121
3 99 120 108
3 114 122 116
3 115 123 117
3 118 122 124
3 117 125 119
3 118 126 120
3 121 125 127
3 108 126 128
3 121 129 107
3 108 130 109
3 110 129 131
3 109 132 111
3 112 131 133
3 113 29 134
3 30 111 132
3 112 135 114
3 115 134 136
3 128 137 130
3 131 138 139
3 130 140 132
3 133 139 141
3 134 29 142
3 30 132 140
3 133 143 135
3 134 144 136
3 135 145 122
3 136 146 123
3 124 145 147
3 123 148 125
3 124 149 126
3 127 148 150
3 128 149 151
3 127 138 129
3 146 152 153
3 147 154 155
3 146 156 148
3 147 157 149
3 150 156 158
3 151 157 159
3 150 160 138
3 151 161 137
3 139 160 162
3 140 161 163
3 141 162 164
3 142 29 165
3 30 140 163
3 141 166 143
3 142 152 144
3 143 154 145
3 162 167 168
3 161 169 163
3 164 168 170
3 165 29 171
3 30 163 169
3 164 172 166
3 165 173 152
3 166 174 154
3 153 173 175
3 155 174 176
3 153 177 156
3 155 178 157
3 158 177 179
3 159 178 180
3 158 167 160
3 159 181 161
3 176 182 183
3 175 184 177
3 176 185 178
3 179 184 186
3 178 187 180
3 179 188 167
3 181 187 189
3 168 188 190
3 169 189 191
3 170 190 192
3 171 29 193
3 30 169 191
3 170 194 172
3 171 195 173
3 172 182 174
3 173 196 175
3 189 197 191
3 192 198 199
3 193 29 200
3 30 191 197
3 192 201 194
3 195 200 202
3 194 203 182
3 196 202 204
3 183 203 205
3 196 206 184
3 183 207 185
3 186 206 208
3 187 207 209
3 186 210 188
3 187 211 189
3 190 210 198
3 205 212 207
3 208 213 214
3 209 212 215
3 208 216 210
3 209 217 211
3 198 216 218
3 211 219 197
3 199 218 220
3 200 29 221
3 30 197 219
3 199 222 201
3 200 223 202
3 201 224 203
3 202 225 204
3 205 224 226
3 204 213 206
3 221 29 227
3 30 219 228
3 220 229 222
3 221 230 223
3 222 231 224
3 223 232 225
3 226 231 233
3 225 234 213
3 226 235 212
3 214 234 236
3 215 235 237
3 214 238 216
3 215 239 217
3 218 238 240
3 217 228 219
3 220 240 241
3 236 242 243
3 237 244 245
3 236 246 238
3 237 247 239
3 240 246 248
3 228 247 249
3 241 248 250
3 227 29 251
3 30 228 249
3 241 252 229
3 227 253 230
3 229 254 231
3 232 253 255
3 233 254 256
3 232 242 234
3 233 244 235
3 250 257 252
3 251 258 253
3 252 259 254
3 253 260 255
3 256 259 261
3 255 262 242
3 256 263 244
3 243 262 264
3 245 263 265
3 243 266 246
3 245 267 247
3 248 266 268
3 247 269 249
3 250 268 270
3 251 29 271
3 30 249 269
3 265 272 273
3 264 274 266
3 265 275 267
3 268 274 276
3 267 277 269
3 270 276 278
3 271 29 279
3 30 269 277
3 270 280 257
3 258 279 281
3 257 282 259
3 258 283 260
3 261 282 284
3 260 285 262
3 261 272 263
3 264 285 286
3 281 287 288
3 280 289 282
3 281 290 283
3 284 289 291
3 283 292 285
3 284 293 272
3 286 292 294
3 273 293 295
3 286 296 274
3 273 297 275
3 276 296 298
3 277 297 299
3 278 298 300
3 279 29 287
3 30 277 299
3 278 301 280
3 294 302 296
3 295 303 297
3 298 302 304
3 299 303 305
3 300 304 306
3 287 29 307
3 30 299 305
3 300 308 301
3 287 309 288
3 301 310 289
3 288 311 290
3 291 310 312
3 290 313 292
3 291 314 293
3 294 313 315
3 295 314 316
3 308 317 310
3 309 318 311
3 312 317 319
3 311 320 313
3 312 321 314
3 315 320 322
3 316 321 323
3 315 324 302
3 316 325 303
3 304 324 326
3 303 327 305
3 306 326 328
3 307 29 329
3 30 305 327
3 306 330 308
3 307 331 309
3 323 332 325
3 326 333 334
3 325 335 327
3 328 334 336
3 329 29 337
3 30 327 335
3 328 338 330
3 329 339 331
3 330 340 317
3 331 341 318
3 319 340 342
3 318 343 320
3 319 344 321
3 320 345 322
3 323 344 346
3 322 333 324
3 342 347 348
3 341 349 343
3 342 350 344
3 345 349 351
3 346 350 352
3 345 353 333
3 346 354 332
3 334 353 355
3 332 356 335
3 336 355 357
3 337 29 358
3 30 335 356
3 336 359 338
3 337 360 339
3 338 347 340
3 339 361 341
3 354 362 356
3 357 363 364
3 358 29 365
3 30 356 362
3 357 366 359
3 358 367 360
3 359 368 347
3 361 367 369
3 348 368 370
3 361 371 349
3 348 372 350
3 351 371 373
3 352 372 374
3 351 375 353
3 352 376 354
3 355 375 363
3 369 377 371
3 370 378 372
3 373 377 379
3 374 378 380
3 373 381 375
3 374 382 376
3 363 381 383
3 376 384 362
3 364 383 385
3 365 29 386
3 30 362 384
3 364 387 366
3 365 388 367
3 366 389 368
3 369 388 390
3 370 389 391
3 385 392 393
3 386 29 394
3 30 384 395
3 385 396 387
3 386 397 388
3 387 398 389
3 390 397 399
3 391 398 400
3 390 401 377
3 391 402 378
3 379 401 403
3 380 402 404
3 379 405 381
3 380 406 382
3 383 405 392
3 382 395 384
3 400 407 402
3 403 408 409
3 404 407 410
3 403 411 405
3 406 410 412
3 392 411 413
3 406 414 395
3 393 413 415
3 394 29 416
3 30 395 414
3 393 417 396
3 397 416 418
3 396 419 398
3 397 420 399
3 400 419 421
3 399 408 401
3 416 29 422
3 30 414 423
3 415 424 417
3 416 425 418
3 417 426 419
3 420 425 427
3 421 426 428
3 420 429 408
3 421 430 407
3 409 429 431
3 410 430 432
3 409 433 411
3 410 434 412
3 413 433 435
3 412 423 414
3 415 435 436
3 431 437 438
3 432 439 440
3 431 441 433
3 432 442 434
3 435 441 443
3 434 444 423
3 436 443 445
3 422 29 446
3 30 423 444
3 436 447 424
3 422 448 425
3 424 449 426
3 427 448 450
3 428 449 451
3 427 437 429
3 428 439 430
3 445 452 447
3 448 453 454
3 447 455 449
3 448 456 450
3 451 455 457
3 450 458 437
3 451 459 439
3 438 458 460
3 440 459 461
3 438 462 441
3 440 463 442
3 443 462 464
3 442 465 444
3 445 464 466
3 446 29 453
3 30 444 465
3 461 467 468
3 460 469 462
3 461 470 463
3 464 469 471
3 465 470 472
3 466 471 473
3 453 29 474
3 30 465 472
3 466 475 452
3 453 476 454
3 452 477 455
3 456 476 478
3 457 477 479
3 456 480 458
3 457 467 459
3 460 480 481
3 475 5 477
3 478 0 6
3 477 9 479
3 480 6 10
3 479 13 467
3 481 10 14
3 468 13 17
3 469 14 18
3 468 21 470
3 471 18 22
3 470 25 472
3 473 22 27
3 474 29 28
3 30 472 25
3 473 3 475
3 476 28 0
3 0 28 1
3 3 31 4
3 6 0 2
3 5 4 8
3 10 6 7
3 9 8 12
3 14 10 11
3 13 12 16
3 18 14 15
3 17 16 20
3 22 18 19
3 21 20 24
3 22 23 26
3 27 26 31
3 23 46 32
3 26 32 35
3 1 33 36
3 31 35 37
3 2 36 38
3 4 37 39
3 7 38 40
3 8 39 41
3 11 40 42
3 16 12 41
3 15 42 44
3 20 16 43
3 23 19 44
3 20 45 34
3 41 39 47
3 40 61 49
3 43 41 48
3 42 49 51
3 43 50 52
3 44 51 53
3 45 52 54
3 46 53 55
3 35 32 55
3 33 56 58
3 35 57 59
3 36 58 60
3 39 37 59
3 38 60 61
3 55 75 63
3 56 76 64
3 57 63 65
3 58 64 66
3 47 59 65
3 60 66 68
3 47 67 69
3 61 68 70
3 48 69 71
3 49 70 72
3 50 71 73
3 53 51 72
3 52 73 62
3 55 53 74
3 69 90 77
3 70 91 78
3 73 71 77
3 74 72 78
3 73 79 81
3 75 74 80
3 75 82 84
3 76 83 85
3 63 84 86
3 64 85 87
3 67 65 86
3 66 87 89
3 67 88 90
3 70 68 89
3 83 105 92
3 84 106 93
3 85 92 94
3 88 86 93
3 87 94 96
3 88 95 97
3 91 89 96
3 90 97 99
3 91 98 100
3 77 99 101
3 80 78 100
3 81 79 101
3 82 80 102
3 82 104 106
3 98 121 107
3 101 99 108
3 102 100 107
3 101 109 111
3 104 102 110
3 104 112 114
3 92 105 113
3 106 114 116
3 92 115 117
3 95 93 116
3 94 117 119
3 95 118 120
3 98 96 119
3 99 97 120
3 114 135 122
3 115 136 123
3 118 116 122
3 117 123 125
3 118 124 126
3 121 119 125
3 108 120 126
3 121 127 129
3 108 128 130
3 110 107 129
3 109 130 132
3 112 110 131
3 112 133 135
3 115 113 134
3 128 151 137
3 131 129 138
3 130 137 140
3 133 131 139
3 133 141 143
3 134 142 144
3 135 143 145
3 136 144 146
3 124 122 145
3 123 146 148
3 124 147 149
3 127 125 148
3 128 126 149
3 127 150 138
3 146 144 152
3 147 145 154
3 146 153 156
3 147 155 157
3 150 148 156
3 151 149 157
3 150 158 160
3 151 159 161
3 139 138 160
3 140 137 161
3 141 139 162
3 141 164 166
3 142 165 152
3 143 166 154
3 162 160 167
3 161 181 169
3 164 162 168
3 164 170 172
3 165 171 173
3 166 172 174
3 153 152 173
3 155 154 174
3 153 175 177
3 155 176 178
3 158 156 177
3 159 157 178
3 158 179 167
3 159 180 181
3 176 174 182
3 175 196 184
3 176 183 185
3 179 177 184
3 178 185 187
3 179 186 188
3 181 180 187
3 168 167 188
3 169 181 189
3 170 168 190
3 170 192 194
3 171 193 195
3 172 194 182
3 173 195 196
3 189 211 197
3 192 190 198
3 192 199 201
3 195 193 200
3 194 201 203
3 196 195 202
3 183 182 203
3 196 204 206
3 183 205 207
3 186 184 206
3 187 185 207
3 186 208 210
3 187 209 211
3 190 188 210
3 205 226 212
3 208 206 213
3 209 207 212
3 208 214 216
3 209 215 217
3 198 210 216
3 211 217 219
3 199 198 218
3 199 220 222
3 200 221 223
3 201 222 224
3 202 223 225
3 205 203 224
3 204 225 213
3 220 241 229
3 221 227 230
3 222 229 231
3 223 230 232
3 226 224 231
3 225 232 234
3 226 233 235
3 214 213 234
3 215 212 235
3 214 236 238
3 215 237 239
3 218 216 238
3 217 239 228
3 220 218 240
3 236 234 242
3 237 235 244
3 236 243 246
3 237 245 247
3 240 238 246
3 228 239 247
3 241 240 248
3 241 250 252
3 227 251 253
3 229 252 254
3 232 230 253
3 233 231 254
3 232 255 242
3 233 256 244
3 250 270 257
3 251 271 258
3 252 257 259
3 253 258 260
3 256 254 259
3 255 260 262
3 256 261 263
3 243 242 262
3 245 244 263
3 243 264 266
3 245 265 267
3 248 246 266
3 247 267 269
3 250 248 268
3 265 263 272
3 264 286 274
3 265 273 275
3 268 266 274
3 267 275 277
3 270 268 276
3 270 278 280
3 258 271 279
3 257 280 282
3 258 281 283
3 261 259 282
3 260 283 285
3 261 284 272
3 264 262 285
3 281 279 287
3 280 301 289
3 281 288 290
3 284 282 289
3 283 290 292
3 284 291 293
3 286 285 292
3 273 272 293
3 286 294 296
3 273 295 297
3 276 274 296
3 277 275 297
3 278 276 298
3 278 300 301
3 294 315 302
3 295 316 303
3 298 296 302
3 299 297 303
3 300 298 304
3 300 306 308
3 287 307 309
3 301 308 310
3 288 309 311
3 291 289 310
3 290 311 313
3 291 312 314
3 294 292 313
3 295 293 314
3 308 330 317
3 309 331 318
3 312 310 317
3 311 318 320
3 312 319 321
3 315 313 320
3 316 314 321
3 315 322 324
3 316 323 325
3 304 302 324
3 303 325 327
3 306 304 326
3 306 328 330
3 307 329 331
3 323 346 332
3 326 324 333
3 325 332 335
3 328 326 334
3 328 336 338
3 329 337 339
3 330 338 340
3 331 339 341
3 319 317 340
3 318 341 343
3 319 342 344
3 320 343 345
3 323 321 344
3 322 345 333
3 342 340 347
3 341 361 349
3 342 348 350
3 345 343 349
3 346 344 350
3 345 351 353
3 346 352 354
3 334 333 353
3 332 354 356
3 336 334 355
3 336 357 359
3 337 358 360
3 338 359 347
3 339 360 361
3 354 376 362
3 357 355 363
3 357 364 366
3 358 365 367
3 359 366 368
3 361 360 367
3 348 347 368
3 361 369 371
3 348 370 372
3 351 349 371
3 352 350 372
3 351 373 375
3 352 374 376
3 355 353 375
3 369 390 377
3 370 391 378
3 373 371 377
3 374 372 378
3 373 379 381
3 374 380 382
3 363 375 381
3 376 382 384
3 364 363 383
3 364 385 387
3 365 386 388
3 366 387 389
3 369 367 388
3 370 368 389
3 385 383 392
3 385 393 396
3 386 394 397
3 387 396 398
3 390 388 397
3 391 389 398
3 390 399 401
3 391 400 402
3 379 377 401
3 380 378 402
3 379 403 405
3 380 404 406
3 383 381 405
3 382 406 395
3 400 421 407
3 403 401 408
3 404 402 407
3 403 409 411
3 406 404 410
3 392 405 411
3 406 412 414
3 393 392 413
3 393 415 417
3 397 394 416
3 396 417 419
3 397 418 420
3 400 398 419
3 399 420 408
3 415 436 424
3 416 422 425
3 417 424 426
3 420 418 425
3 421 419 426
3 420 427 429
3 421 428 430
3 409 408 429
3 410 407 430
3 409 431 433
3 410 432 434
3 413 411 433
3 412 434 423
3 415 413 435
3 431 429 437
3 432 430 439
3 431 438 441
3 432 440 442
3 435 433 441
3 434 442 444
3 436 435 443
3 436 445 447
3 422 446 448
3 424 447 449
3 427 425 448
3 428 426 449
3 427 450 437
3 428 451 439
3 445 466 452
3 448 446 453
3 447 452 455
3 448 454 456
3 451 449 455
3 450 456 458
3 451 457 459
3 438 437 458
3 440 439 459
3 438 460 462
3 440 461 463
3 443 441 462
3 442 463 465
3 445 443 464
3 461 459 467
3 460 481 469
3 461 468 470
3 464 462 469
3 465 463 470
3 466 464 471
3 466 473 475
3 453 474 476
3 452 475 477
3 456 454 476
3 457 455 477
3 456 478 480
3 457 479 467
3 460 458 480
3 475 3 5
3 478 476 0
3 477 5 9
3 480 478 6
3 479 9 13
3 481 480 10
3 468 467 13
3 469 481 14
3 468 17 21
3 471 469 18
3 470 21 25
3 473 471 22
3 473 27 3
3 476 474 28
