ply
format ascii 1.0
comment Created by Blender 3.3.1 - www.blender.org
element vertex 231
property float x
property float y
property float z
property float nx
property float ny
property float nz
element face 223
property list uchar uint vertex_indices
end_header
3.401000 0.000000 0.000000 0.000000 0.000000 1.000000
3.499000 0.598000 0.000000 0.000000 0.000000 1.000000
3.401000 0.682000 0.000000 0.000000 0.000000 1.000000
3.573000 0.682000 0.000000 0.000000 0.000000 1.000000
3.606397 0.680495 0.000000 0.000000 0.000000 1.000000
3.637510 0.676046 0.000000 0.000000 0.000000 1.000000
3.666219 0.668750 0.000000 0.000000 0.000000 1.000000
3.692408 0.658704 0.000000 0.000000 0.000000 1.000000
3.715957 0.646005 0.000000 0.000000 0.000000 1.000000
3.736750 0.630750 0.000000 0.000000 0.000000 1.000000
3.754668 0.613037 0.000000 0.000000 0.000000 1.000000
3.562000 0.598000 0.000000 0.000000 0.000000 1.000000
3.769593 0.592963 0.000000 0.000000 0.000000 1.000000
3.499000 0.384000 0.000000 0.000000 0.000000 1.000000
3.584574 0.597196 0.000000 0.000000 0.000000 1.000000
3.604843 0.594815 0.000000 0.000000 0.000000 1.000000
3.622875 0.590906 0.000000 0.000000 0.000000 1.000000
3.781406 0.570625 0.000000 0.000000 0.000000 1.000000
3.638741 0.585519 0.000000 0.000000 0.000000 1.000000
3.652509 0.578700 0.000000 0.000000 0.000000 1.000000
3.664250 0.570500 0.000000 0.000000 0.000000 1.000000
3.789991 0.546120 0.000000 0.000000 0.000000 1.000000
3.674032 0.560966 0.000000 0.000000 0.000000 1.000000
3.681926 0.550148 0.000000 0.000000 0.000000 1.000000
3.688000 0.538094 0.000000 0.000000 0.000000 1.000000
3.795228 0.519546 0.000000 0.000000 0.000000 1.000000
3.692324 0.524852 0.000000 0.000000 0.000000 1.000000
3.694968 0.510471 0.000000 0.000000 0.000000 1.000000
3.797000 0.491000 0.000000 0.000000 0.000000 1.000000
3.696000 0.495000 0.000000 0.000000 0.000000 1.000000
3.695579 0.480842 0.000000 0.000000 0.000000 1.000000
3.796151 0.471673 0.000000 0.000000 0.000000 1.000000
3.693713 0.466986 0.000000 0.000000 0.000000 1.000000
3.793625 0.453213 0.000000 0.000000 0.000000 1.000000
3.690250 0.453609 0.000000 0.000000 0.000000 1.000000
3.685037 0.440889 0.000000 0.000000 0.000000 1.000000
3.789453 0.435656 0.000000 0.000000 0.000000 1.000000
3.677921 0.429002 0.000000 0.000000 0.000000 1.000000
3.783667 0.419037 0.000000 0.000000 0.000000 1.000000
3.668750 0.418125 0.000000 0.000000 0.000000 1.000000
3.776297 0.403390 0.000000 0.000000 0.000000 1.000000
3.657370 0.408436 0.000000 0.000000 0.000000 1.000000
3.643629 0.400111 0.000000 0.000000 0.000000 1.000000
3.767375 0.388750 0.000000 0.000000 0.000000 1.000000
3.627375 0.393328 0.000000 0.000000 0.000000 1.000000
3.608453 0.388264 0.000000 0.000000 0.000000 1.000000
3.756932 0.375152 0.000000 0.000000 0.000000 1.000000
3.586713 0.385095 0.000000 0.000000 0.000000 1.000000
3.562000 0.384000 0.000000 0.000000 0.000000 1.000000
3.499000 0.296000 0.000000 0.000000 0.000000 1.000000
3.745000 0.362630 0.000000 0.000000 0.000000 1.000000
3.731610 0.351219 0.000000 0.000000 0.000000 1.000000
3.716792 0.340954 0.000000 0.000000 0.000000 1.000000
3.700578 0.331869 0.000000 0.000000 0.000000 1.000000
3.683000 0.324000 0.000000 0.000000 0.000000 1.000000
3.698022 0.313292 0.000000 0.000000 0.000000 1.000000
3.712176 0.301667 0.000000 0.000000 0.000000 1.000000
3.540000 0.296000 0.000000 0.000000 0.000000 1.000000
3.552346 0.295604 0.000000 0.000000 0.000000 1.000000
3.725594 0.289125 0.000000 0.000000 0.000000 1.000000
3.499000 0.000000 0.000000 0.000000 0.000000 1.000000
3.564519 0.294167 0.000000 0.000000 0.000000 1.000000
3.576719 0.291313 0.000000 0.000000 0.000000 1.000000
3.589148 0.286667 0.000000 0.000000 0.000000 1.000000
3.738407 0.275667 0.000000 0.000000 0.000000 1.000000
3.602008 0.279854 0.000000 0.000000 0.000000 1.000000
3.615500 0.270500 0.000000 0.000000 0.000000 1.000000
3.750749 0.261292 0.000000 0.000000 0.000000 1.000000
3.629825 0.258229 0.000000 0.000000 0.000000 1.000000
3.762750 0.246000 0.000000 0.000000 0.000000 1.000000
3.645185 0.242667 0.000000 0.000000 0.000000 1.000000
3.774543 0.229792 0.000000 0.000000 0.000000 1.000000
3.661781 0.223437 0.000000 0.000000 0.000000 1.000000
3.786259 0.212667 0.000000 0.000000 0.000000 1.000000
3.679815 0.200167 0.000000 0.000000 0.000000 1.000000
3.798031 0.194625 0.000000 0.000000 0.000000 1.000000
3.699487 0.172479 0.000000 0.000000 0.000000 1.000000
3.809991 0.175667 0.000000 0.000000 0.000000 1.000000
3.822270 0.155792 0.000000 0.000000 0.000000 1.000000
3.721000 0.140000 0.000000 0.000000 0.000000 1.000000
3.835000 0.135000 0.000000 0.000000 0.000000 1.000000
3.811000 0.000000 0.000000 0.000000 0.000000 1.000000
3.842024 0.123712 0.000000 0.000000 0.000000 1.000000
3.848695 0.113194 0.000000 0.000000 0.000000 1.000000
3.855156 0.103219 0.000000 0.000000 0.000000 1.000000
3.861556 0.093556 0.000000 0.000000 0.000000 1.000000
3.868038 0.083976 0.000000 0.000000 0.000000 1.000000
3.874750 0.074250 0.000000 0.000000 0.000000 1.000000
3.881837 0.064149 0.000000 0.000000 0.000000 1.000000
3.889445 0.053444 0.000000 0.000000 0.000000 1.000000
3.897719 0.041906 0.000000 0.000000 0.000000 1.000000
3.906806 0.029306 0.000000 0.000000 0.000000 1.000000
3.916851 0.015413 0.000000 0.000000 0.000000 1.000000
3.928000 0.000000 0.000000 0.000000 0.000000 1.000000
2.899000 0.000000 0.000000 0.000000 0.000000 1.000000
2.997000 0.594000 0.000000 0.000000 0.000000 1.000000
2.899000 0.682000 0.000000 0.000000 0.000000 1.000000
3.286000 0.682000 0.000000 0.000000 0.000000 1.000000
3.286000 0.594000 0.000000 0.000000 0.000000 1.000000
2.997000 0.388000 0.000000 0.000000 0.000000 1.000000
2.997000 0.300000 0.000000 0.000000 0.000000 1.000000
3.276000 0.388000 0.000000 0.000000 0.000000 1.000000
3.276000 0.300000 0.000000 0.000000 0.000000 1.000000
2.997000 0.088000 0.000000 0.000000 0.000000 1.000000
3.295000 0.088000 0.000000 0.000000 0.000000 1.000000
3.295000 0.000000 0.000000 0.000000 0.000000 1.000000
2.058000 -0.006000 0.000000 0.000000 0.000000 1.000000
1.880000 0.682000 0.000000 0.000000 0.000000 1.000000
1.782000 0.682000 0.000000 0.000000 0.000000 1.000000
2.068000 0.212000 0.000000 0.000000 0.000000 1.000000
2.350000 0.682000 0.000000 0.000000 0.000000 1.000000
2.257000 0.682000 0.000000 0.000000 0.000000 1.000000
2.303000 0.552000 0.000000 0.000000 0.000000 1.000000
2.540000 0.212000 0.000000 0.000000 0.000000 1.000000
2.823000 0.682000 0.000000 0.000000 0.000000 1.000000
2.726000 0.682000 0.000000 0.000000 0.000000 1.000000
2.546000 -0.006000 0.000000 0.000000 0.000000 1.000000
2.077000 -0.006000 0.000000 0.000000 0.000000 1.000000
2.527000 -0.006000 0.000000 0.000000 0.000000 1.000000
1.316373 0.687723 0.000000 0.000000 0.000000 1.000000
1.424487 0.687742 0.000000 0.000000 0.000000 1.000000
1.370000 0.691000 0.000000 0.000000 0.000000 1.000000
1.475310 0.678269 0.000000 0.000000 0.000000 1.000000
1.266153 0.678199 0.000000 0.000000 0.000000 1.000000
1.522266 0.663031 0.000000 0.000000 0.000000 1.000000
1.219578 0.662891 0.000000 0.000000 0.000000 1.000000
1.565148 0.642482 0.000000 0.000000 0.000000 1.000000
1.176889 0.642259 0.000000 0.000000 0.000000 1.000000
1.603753 0.617071 0.000000 0.000000 0.000000 1.000000
1.138325 0.616767 0.000000 0.000000 0.000000 1.000000
1.637875 0.587250 0.000000 0.000000 0.000000 1.000000
1.104125 0.586875 0.000000 0.000000 0.000000 1.000000
1.370000 0.601000 0.000000 0.000000 0.000000 1.000000
1.332855 0.598749 0.000000 0.000000 0.000000 1.000000
1.407374 0.598749 0.000000 0.000000 0.000000 1.000000
1.442829 0.592157 0.000000 0.000000 0.000000 1.000000
1.297593 0.592157 0.000000 0.000000 0.000000 1.000000
1.476109 0.581469 0.000000 0.000000 0.000000 1.000000
1.264469 0.581469 0.000000 0.000000 0.000000 1.000000
1.667310 0.553471 0.000000 0.000000 0.000000 1.000000
1.074529 0.553046 0.000000 0.000000 0.000000 1.000000
1.506963 0.566926 0.000000 0.000000 0.000000 1.000000
1.233741 0.566926 0.000000 0.000000 0.000000 1.000000
1.535136 0.548772 0.000000 0.000000 0.000000 1.000000
1.205666 0.548772 0.000000 0.000000 0.000000 1.000000
1.691852 0.516185 0.000000 0.000000 0.000000 1.000000
1.049778 0.515741 0.000000 0.000000 0.000000 1.000000
1.560375 0.527250 0.000000 0.000000 0.000000 1.000000
1.180500 0.527250 0.000000 0.000000 0.000000 1.000000
1.582427 0.502603 0.000000 0.000000 0.000000 1.000000
1.158501 0.502603 0.000000 0.000000 0.000000 1.000000
1.711297 0.475844 0.000000 0.000000 0.000000 1.000000
1.030109 0.475422 0.000000 0.000000 0.000000 1.000000
1.601037 0.475074 0.000000 0.000000 0.000000 1.000000
1.139926 0.475074 0.000000 0.000000 0.000000 1.000000
1.725440 0.432898 0.000000 0.000000 0.000000 1.000000
1.015764 0.432551 0.000000 0.000000 0.000000 1.000000
1.615953 0.444906 0.000000 0.000000 0.000000 1.000000
1.125031 0.444906 0.000000 0.000000 0.000000 1.000000
1.626921 0.412343 0.000000 0.000000 0.000000 1.000000
1.114074 0.412343 0.000000 0.000000 0.000000 1.000000
1.734076 0.387800 0.000000 0.000000 0.000000 1.000000
1.006981 0.387590 0.000000 0.000000 0.000000 1.000000
1.633688 0.377626 0.000000 0.000000 0.000000 1.000000
1.107311 0.377626 0.000000 0.000000 0.000000 1.000000
1.737000 0.341000 0.000000 0.000000 0.000000 1.000000
1.004000 0.341000 0.000000 0.000000 0.000000 1.000000
1.636000 0.341000 0.000000 0.000000 0.000000 1.000000
1.105000 0.341000 0.000000 0.000000 0.000000 1.000000
1.006903 0.295251 0.000000 0.000000 0.000000 1.000000
1.107311 0.304584 0.000000 0.000000 0.000000 1.000000
1.633688 0.304584 0.000000 0.000000 0.000000 1.000000
1.734151 0.295461 0.000000 0.000000 0.000000 1.000000
1.114074 0.270005 0.000000 0.000000 0.000000 1.000000
1.626921 0.270005 0.000000 0.000000 0.000000 1.000000
1.725708 0.251185 0.000000 0.000000 0.000000 1.000000
1.015477 0.250838 0.000000 0.000000 0.000000 1.000000
1.125031 0.237516 0.000000 0.000000 0.000000 1.000000
1.615953 0.237516 0.000000 0.000000 0.000000 1.000000
1.711828 0.208688 0.000000 0.000000 0.000000 1.000000
1.029516 0.208266 0.000000 0.000000 0.000000 1.000000
1.601037 0.207370 0.000000 0.000000 0.000000 1.000000
1.139926 0.207370 0.000000 0.000000 0.000000 1.000000
1.692667 0.168481 0.000000 0.000000 0.000000 1.000000
1.048815 0.168037 0.000000 0.000000 0.000000 1.000000
1.582427 0.179822 0.000000 0.000000 0.000000 1.000000
1.158501 0.179822 0.000000 0.000000 0.000000 1.000000
1.560375 0.155125 0.000000 0.000000 0.000000 1.000000
1.180500 0.155125 0.000000 0.000000 0.000000 1.000000
1.668380 0.131081 0.000000 0.000000 0.000000 1.000000
1.073169 0.130656 0.000000 0.000000 0.000000 1.000000
1.535136 0.133532 0.000000 0.000000 0.000000 1.000000
1.205666 0.133532 0.000000 0.000000 0.000000 1.000000
1.506963 0.115296 0.000000 0.000000 0.000000 1.000000
1.233741 0.115296 0.000000 0.000000 0.000000 1.000000
1.639125 0.097000 0.000000 0.000000 0.000000 1.000000
1.102375 0.096625 0.000000 0.000000 0.000000 1.000000
1.476109 0.100672 0.000000 0.000000 0.000000 1.000000
1.264469 0.100672 0.000000 0.000000 0.000000 1.000000
1.442829 0.089912 0.000000 0.000000 0.000000 1.000000
1.297593 0.089912 0.000000 0.000000 0.000000 1.000000
1.605057 0.066752 0.000000 0.000000 0.000000 1.000000
1.136226 0.066448 0.000000 0.000000 0.000000 1.000000
1.407374 0.083270 0.000000 0.000000 0.000000 1.000000
1.332855 0.083270 0.000000 0.000000 0.000000 1.000000
1.370000 0.081000 0.000000 0.000000 0.000000 1.000000
1.566333 0.040852 0.000000 0.000000 0.000000 1.000000
1.174518 0.040630 0.000000 0.000000 0.000000 1.000000
1.523109 0.019813 0.000000 0.000000 0.000000 1.000000
1.217047 0.019672 0.000000 0.000000 0.000000 1.000000
1.475542 0.004148 0.000000 0.000000 0.000000 1.000000
1.263606 0.004079 0.000000 0.000000 0.000000 1.000000
1.423787 -0.005627 0.000000 0.000000 0.000000 1.000000
1.313992 -0.005646 0.000000 0.000000 0.000000 1.000000
1.368000 -0.009000 0.000000 0.000000 0.000000 1.000000
0.543000 0.000000 0.000000 0.000000 0.000000 1.000000
0.641000 0.682000 0.000000 0.000000 0.000000 1.000000
0.543000 0.682000 0.000000 0.000000 0.000000 1.000000
0.641000 0.088000 0.000000 0.000000 0.000000 1.000000
0.949000 0.088000 0.000000 0.000000 0.000000 1.000000
0.949000 0.000000 0.000000 0.000000 0.000000 1.000000
0.076000 0.000000 0.000000 0.000000 0.000000 1.000000
0.174000 0.594000 0.000000 0.000000 0.000000 1.000000
0.076000 0.682000 0.000000 0.000000 0.000000 1.000000
0.440000 0.682000 0.000000 0.000000 0.000000 1.000000
0.440000 0.594000 0.000000 0.000000 0.000000 1.000000
0.174000 0.405000 0.000000 0.000000 0.000000 1.000000
0.174000 0.317000 0.000000 0.000000 0.000000 1.000000
0.440000 0.405000 0.000000 0.000000 0.000000 1.000000
0.440000 0.317000 0.000000 0.000000 0.000000 1.000000
0.174000 0.000000 0.000000 0.000000 0.000000 1.000000
3 0 1 2
3 1 3 2
3 1 4 3
3 1 5 4
3 1 6 5
3 1 7 6
3 1 8 7
3 1 9 8
3 1 10 9
3 1 11 10
3 11 12 10
3 0 13 1
3 14 12 11
3 15 12 14
3 16 12 15
3 16 17 12
3 18 17 16
3 19 17 18
3 20 17 19
3 20 21 17
3 22 21 20
3 23 21 22
3 24 21 23
3 24 25 21
3 26 25 24
3 27 25 26
3 27 28 25
3 29 28 27
3 30 28 29
3 30 31 28
3 32 31 30
3 32 33 31
3 34 33 32
3 35 33 34
3 35 36 33
3 37 36 35
3 37 38 36
3 39 38 37
3 39 40 38
3 41 40 39
3 42 40 41
3 42 43 40
3 44 43 42
3 45 43 44
3 45 46 43
3 47 46 45
3 48 46 47
3 0 49 13
3 49 48 13
3 49 46 48
3 49 50 46
3 49 51 50
3 49 52 51
3 49 53 52
3 49 54 53
3 49 55 54
3 49 56 55
3 49 57 56
3 57 58 56
3 58 59 56
3 0 60 49
3 61 59 58
3 62 59 61
3 63 59 62
3 63 64 59
3 65 64 63
3 66 64 65
3 66 67 64
3 68 67 66
3 68 69 67
3 70 69 68
3 70 71 69
3 72 71 70
3 72 73 71
3 74 73 72
3 74 75 73
3 76 75 74
3 76 77 75
3 76 78 77
3 79 78 76
3 79 80 78
3 81 80 79
3 81 82 80
3 81 83 82
3 81 84 83
3 81 85 84
3 81 86 85
3 81 87 86
3 81 88 87
3 81 89 88
3 81 90 89
3 81 91 90
3 81 92 91
3 81 93 92
3 94 95 96
3 95 97 96
3 95 98 97
3 94 99 95
3 94 100 99
3 100 101 99
3 100 102 101
3 94 103 100
3 94 104 103
3 94 105 104
3 106 107 108
3 106 109 107
3 109 110 111
3 109 112 110
3 112 113 110
3 113 114 115
3 113 116 114
3 109 117 112
3 118 113 112
3 106 117 109
3 118 116 113
3 119 120 121
3 119 122 120
3 123 122 119
3 123 124 122
3 125 124 123
3 125 126 124
3 127 126 125
3 127 128 126
3 129 128 127
3 129 130 128
3 131 132 129
3 132 130 129
3 131 133 132
3 134 130 132
3 135 130 134
3 131 136 133
3 137 130 135
3 131 138 136
3 137 139 130
3 140 138 131
3 141 139 137
3 140 142 138
3 143 139 141
3 140 144 142
3 143 145 139
3 146 144 140
3 147 145 143
3 146 148 144
3 149 145 147
3 146 150 148
3 149 151 145
3 152 150 146
3 153 151 149
3 152 154 150
3 153 155 151
3 156 154 152
3 157 155 153
3 156 158 154
3 159 155 157
3 156 160 158
3 159 161 155
3 162 160 156
3 163 161 159
3 162 164 160
3 163 165 161
3 166 164 162
3 167 165 163
3 166 168 164
3 169 168 166
3 169 170 168
3 171 165 167
3 171 172 165
3 169 173 170
3 174 172 171
3 174 175 172
3 176 173 169
3 176 177 173
3 178 175 174
3 178 179 175
3 180 177 176
3 181 179 178
3 180 182 177
3 181 183 179
3 184 182 180
3 185 183 181
3 184 186 182
3 187 183 185
3 184 188 186
3 187 189 183
3 190 188 184
3 191 189 187
3 190 192 188
3 193 189 191
3 190 194 192
3 193 195 189
3 196 194 190
3 197 195 193
3 196 198 194
3 199 195 197
3 196 200 198
3 199 201 195
3 202 200 196
3 203 201 199
3 202 204 200
3 205 201 203
3 202 205 204
3 202 201 205
3 202 206 201
3 207 206 202
3 207 208 206
3 209 208 207
3 209 210 208
3 211 210 209
3 211 212 210
3 213 212 211
3 213 214 212
3 215 216 217
3 215 218 216
3 215 219 218
3 215 220 219
3 221 222 223
3 222 224 223
3 222 225 224
3 221 226 222
3 221 227 226
3 227 228 226
3 227 229 228
3 221 230 227
