ply
format ascii 1.0
comment Created by Blender 3.3.1 - www.blender.org
element vertex 8
property float x
property float y
property float z
property float nx
property float ny
property float nz
element face 12
property list uchar uint vertex_indices
end_header
-1.241286 -1.317868 0.127892 0.038236 0.815601 -0.577351
1.241286 1.317868 0.127892 -0.038236 -0.815601 -0.577351
1.428215 1.112550 0.127892 -0.815601 0.038235 -0.577350
-1.428215 -1.112550 -0.127892 0.815601 -0.038235 0.577351
1.241286 1.317868 -0.127892 -0.038235 -0.815601 0.577350
-1.428215 -1.112550 0.127892 0.815601 -0.038235 -0.577350
-1.241286 -1.317868 -0.127892 0.038235 0.815601 0.577350
1.428215 1.112550 -0.127892 -0.815601 0.038235 0.577351
3 0 1 2
3 1 3 4
3 5 6 3
3 7 3 6
3 2 4 7
3 0 7 6
3 0 5 1
3 1 5 3
3 5 0 6
3 7 4 3
3 2 1 4
3 0 2 7
