ply
format ascii 1.0
comment Created by Blender 3.3.1 - www.blender.org
element vertex 24
property float x
property float y
property float z
property float nx
property float ny
property float nz
element face 18
property list uchar uint vertex_indices
end_header
10.770287 6.773355 5.016916 -0.578768 0.533887 0.616435
10.764898 7.406948 -4.044324 -0.579453 0.614431 -0.535452
10.806544 -6.197580 -4.995624 -0.575927 -0.537452 -0.615998
10.811933 -6.831172 4.065617 -0.575242 -0.617996 0.535890
11.792179 -6.194537 -4.995997 0.578768 -0.533887 -0.616435
11.797567 -6.828129 4.065243 0.579453 -0.614431 0.535452
11.750533 7.409991 -4.044698 0.575242 0.617996 -0.535890
11.755921 6.776398 5.016542 0.575927 0.537452 0.615998
-0.444517 6.806720 5.001496 -0.578768 0.533887 0.616435
-0.449905 7.440312 -4.059744 -0.579453 0.614431 -0.535452
-0.408259 -6.164215 -5.011044 -0.575927 -0.537452 -0.615998
-0.402871 -6.797808 4.050197 -0.575242 -0.617996 0.535890
0.577375 -6.161172 -5.011417 0.578768 -0.533887 -0.616435
0.582764 -6.794765 4.049823 0.579453 -0.614431 0.535452
0.535729 7.443356 -4.060118 0.575242 0.617996 -0.535890
0.541118 6.809763 5.001122 0.575927 0.537452 0.615998
11.757044 -5.893895 4.081698 0.580023 0.533362 0.615710
11.751656 -5.260303 -4.979542 0.579338 0.613906 -0.536178
-0.373812 -5.211880 -4.968945 -0.575353 0.618517 -0.535169
-0.368423 -5.845472 4.092296 -0.574668 0.537973 0.616719
-0.377798 -6.195105 -5.037693 -0.580023 -0.533362 -0.615710
-0.372410 -6.828697 4.023547 -0.579338 -0.613906 0.536178
11.747669 -6.243528 -5.048289 0.574668 -0.537973 -0.616719
11.753057 -6.877120 4.012951 0.575353 -0.618517 0.535169
4 0 1 2 3
4 3 2 4 5
4 5 4 6 7
4 7 6 1 0
4 3 5 7 0
4 4 2 1 6
4 8 9 10 11
4 11 10 12 13
4 13 12 14 15
4 15 14 9 8
4 11 13 15 8
4 12 10 9 14
4 16 17 18 19
4 19 18 20 21
4 21 20 22 23
4 23 22 17 16
4 19 21 23 16
4 20 18 17 22
